<svg xmlns="http://www.w3.org/2000/svg"  viewBox="0 0 100 100" width="100px" height="100px"><path d="M 31 17 C 23.27961 17 17 23.27961 17 31 L 17 70 C 17 77.72039 23.27961 84 31 84 L 70 84 C 77.72039 84 84 77.72039 84 70 L 84 31 C 84 23.27961 77.72039 17 70 17 L 31 17 z M 31 19 L 70 19 C 76.63961 19 82 24.36039 82 31 L 82 70 C 82 76.63961 76.63961 82 70 82 L 31 82 C 24.36039 82 19 76.63961 19 70 L 19 31 C 19 24.36039 24.36039 19 31 19 z M 33.5 22 C 27.154767 22 22 27.154767 22 33.5 L 22 67.5 C 22 73.845233 27.154767 79 33.5 79 L 67.5 79 C 73.845233 79 79 73.845233 79 67.5 L 79 49.5 A 0.50005 0.50005 0 1 0 78 49.5 L 78 67.5 C 78 73.304767 73.304767 78 67.5 78 L 33.5 78 C 27.695233 78 23 73.304767 23 67.5 L 23 33.5 C 23 27.695233 27.695233 23 33.5 23 L 67.5 23 C 67.81729 23 68.134239 23.019658 68.455078 23.048828 A 0.5000688 0.5000688 0 1 0 68.544922 22.052734 C 68.205765 22.0219 67.85871 22 67.5 22 L 33.5 22 z M 31.5 29 A 0.50005 0.50005 0 0 0 31 29.5 L 31 71.5 A 0.50005 0.50005 0 0 0 31.5 72 L 50.5 72 A 0.50005 0.50005 0 0 0 51 71.5 L 51 65.558594 C 52.735796 69.35378 56.558379 72 61 72 C 67.06921 72 72 67.06921 72 61 C 72 56.074651 68.752946 51.898997 64.285156 50.5 C 68.752946 49.101003 72 44.925349 72 40 C 72 33.93079 67.06921 29 61 29 C 56.558379 29 52.735796 31.64622 51 35.441406 L 51 29.5 A 0.50005 0.50005 0 0 0 50.5 29 L 31.5 29 z M 32 30 L 50 30 L 50 61 L 50 71 L 32 71 L 32 30 z M 61 30 C 66.52877 30 71 34.47123 71 40 C 71 45.52877 66.52877 50 61 50 C 55.47123 50 51 45.52877 51 40 C 51 34.47123 55.47123 30 61 30 z M 78.492188 36.992188 A 0.50005 0.50005 0 0 0 78 37.5 L 78 39.5 A 0.50005 0.50005 0 1 0 79 39.5 L 79 37.5 A 0.50005 0.50005 0 0 0 78.492188 36.992188 z M 78.492188 41.992188 A 0.50005 0.50005 0 0 0 78 42.5 L 78 46.5 A 0.50005 0.50005 0 1 0 79 46.5 L 79 42.5 A 0.50005 0.50005 0 0 0 78.492188 41.992188 z M 51 44.558594 C 52.289369 47.377701 54.732011 49.560531 57.722656 50.498047 C 54.727756 51.433412 52.289876 53.621191 51 56.441406 L 51 44.558594 z M 61 51 C 66.52877 51 71 55.47123 71 61 C 71 66.52877 66.52877 71 61 71 C 55.47123 71 51 66.52877 51 61 C 51 55.47123 55.47123 51 61 51 z"/></svg>